<svg xmlns="http://www.w3.org/2000/svg" viewBox="0 0 200 200" role="img" aria-label="부산대학교 마크">
  <defs>
    <linearGradient id="g" x1="0" y1="0" x2="1" y2="1">
      <stop offset="0%" stop-color="#1d2f6f"/>
      <stop offset="100%" stop-color="#244eea"/>
    </linearGradient>
    <linearGradient id="gold" x1="0" y1="0" x2="1" y2="1">
      <stop offset="0%" stop-color="#d8bc6b"/>
      <stop offset="100%" stop-color="#b48a2f"/>
    </linearGradient>
  </defs>
  <circle cx="100" cy="100" r="96" fill="url(#g)"/>
  <circle cx="100" cy="100" r="82" fill="none" stroke="#ffffff" stroke-width="4" opacity="0.95"/>
  <circle cx="100" cy="100" r="61" fill="#ffffff" opacity="0.98"/>
  <path d="M57 92c17-7 31-21 43-42 12 21 26 35 43 42-8 3-15 8-20 16-9-5-16-12-23-21-7 9-14 16-23 21-5-8-12-13-20-16Z" fill="url(#gold)"/>
  <path d="M100 88l12 16H88l12-16Zm-16 22h32v10H84z" fill="#1d2f6f" opacity="0.88"/>
  <text x="100" y="30" font-family="Arial, Noto Sans KR, sans-serif" font-size="16" text-anchor="middle" fill="#fff" font-weight="700">PUSAN NATIONAL UNIVERSITY</text>
  <text x="100" y="154" font-family="Arial, Noto Sans KR, sans-serif" font-size="24" text-anchor="middle" fill="#1d2f6f" font-weight="900">PNU</text>
  <text x="100" y="173" font-family="Arial, Noto Sans KR, sans-serif" font-size="11" text-anchor="middle" fill="#6b7280" font-weight="700">SINCE 1946 · 부산대학교</text>
</svg>